<svg width="1673" height="450" viewBox="0 0 1673 450" fill="none" xmlns="http://www.w3.org/2000/svg">
<g clip-path="url(#clip0_8_35)">
<path d="M1673 0H0V450H1673V0Z" fill="url(#paint0_linear_8_35)"/>
<mask id="mask0_8_35" style="mask-type:alpha" maskUnits="userSpaceOnUse" x="0" y="0" width="1673" height="450">
<path d="M1673 0H0V450H1673V0Z" fill="url(#paint1_linear_8_35)"/>
</mask>
<g mask="url(#mask0_8_35)">
<g opacity="0.17" filter="url(#filter0_d_8_35)">
<path d="M1358.06 -21.8304C1207.88 -37.2941 1185.33 90.1797 1192.97 156.449C1212.38 262.278 1324.95 326.157 1369.62 348.748C1405.35 366.822 1483.08 440.738 1517.48 475.437C1653.56 558.745 1700.07 402.397 1709.42 375.07C1718.78 347.743 1725.69 250.066 1781.03 175.942C1825.31 116.642 1847.19 52.3812 1852.59 27.663C1864 -83.3306 1808.03 -102.716 1783.61 -110.744C1759.2 -118.772 1704.6 -115.149 1611.96 -39.8606C1537.84 20.3701 1411.91 -2.34445 1358.06 -21.8304Z" fill="white"/>
</g>
<path opacity="0.2" d="M0 0H1518.5L695.5 450H0V0Z" fill="white"/>
</g>
</g>
<defs>
<filter id="filter0_d_8_35" x="1152.67" y="-148.712" width="740.432" height="691.346" filterUnits="userSpaceOnUse" color-interpolation-filters="sRGB">
<feFlood flood-opacity="0" result="BackgroundImageFix"/>
<feColorMatrix in="SourceAlpha" type="matrix" values="0 0 0 0 0 0 0 0 0 0 0 0 0 0 0 0 0 0 127 0" result="hardAlpha"/>
<feOffset dy="4"/>
<feGaussianBlur stdDeviation="19.5"/>
<feComposite in2="hardAlpha" operator="out"/>
<feColorMatrix type="matrix" values="0 0 0 0 0.52549 0 0 0 0 0.733333 0 0 0 0 0.945098 0 0 0 1 0"/>
<feBlend mode="normal" in2="BackgroundImageFix" result="effect1_dropShadow_8_35"/>
<feBlend mode="normal" in="SourceGraphic" in2="effect1_dropShadow_8_35" result="shape"/>
</filter>
<linearGradient id="paint0_linear_8_35" x1="0" y1="0" x2="1669.6" y2="296.745" gradientUnits="userSpaceOnUse">
<stop stop-color="#6AD0B9"/>
<stop offset="1" stop-color="#D2EAEF"/>
</linearGradient>
<linearGradient id="paint1_linear_8_35" x1="0" y1="0" x2="1669.6" y2="296.745" gradientUnits="userSpaceOnUse">
<stop stop-color="#86BBF1"/>
<stop offset="1" stop-color="#D2EAEF"/>
</linearGradient>
<clipPath id="clip0_8_35">
<rect width="1673" height="450" fill="white"/>
</clipPath>
</defs>
</svg>
